# xmcd
#
# Track frame offsets:
#	150
#	11217
#	20617
#	30810
#	44722
#	54437
#	64710
#	75922
#	90080
#	99810
#	108987
#	120240
#	130495
#	140962
#	150145
#	158745
#	170497
#	182497
#	194740
#	204807
#	215497
#	226197
#	236152
#	248835
#	262082
#	273710
#	285252
#	296222
#	306502
#	318525
#
# Disc length: 4400 seconds
#
# Revision: 0
# Processed by: cddbd v1.5PL3 Copyright (c) Steve Scherf et al.
# Submitted via: audiograbber 1.80
#
DISCID=a0112e1e
DTITLE=skeets mcdonald - Don't Let The Stars Get In... cd4
DYEAR=1900
DGENRE=
TTITLE0=Fort Worth Jail 
TTITLE1=Hawaiian Sea Breaze 
TTITLE2=Blues In My Mind 
TTITLE3=Yard And A Half Of Blues 
TTITLE4=Goin' Steady With The Blues 
TTITLE5=I'll Sail My Ship Alone 
TTITLE6=Gone And Left Me Blues 
TTITLE7=Lost Highway 
TTITLE8=My Room Is Crowded 
TTITLE9=You're There 
TTITLE10=Tomorrow Never Comes 
TTITLE11=I'm Sorry Now 
TTITLE12=What A Lonesome Life It's Been 
TTITLE13=Baby Wait 
TTITLE14=What Am I Doing Here 
TTITLE15=What I Know About Her 
TTITLE16=Gotta Get You From That Crowd 
TTITLE17=Where You Go (I'll Follow) 
TTITLE18=Cheek To Cheek With The Blues 
TTITLE19=Everglades 
TTITLE20=Make Room For The Blues 
TTITLE21=This Old Heart 
TTITLE22=He'll Let You Live A Little 
TTITLE23=He'll Let You Live A Little 
TTITLE24=Same Old Town 
TTITLE25=What A Fool I Was 
TTITLE26=I Write You Letters 
TTITLE27=You Warned Me You Warned Me 
TTITLE28=In The Corner Of My Mind 
TTITLE29=Fast Company 
EXTD=
EXTT0=
EXTT1=
EXTT2=
EXTT3=
EXTT4=
EXTT5=
EXTT6=
EXTT7=
EXTT8=
EXTT9=
EXTT10=
EXTT11=
EXTT12=
EXTT13=
EXTT14=
EXTT15=
EXTT16=
EXTT17=
EXTT18=
EXTT19=
EXTT20=
EXTT21=
EXTT22=
EXTT23=
EXTT24=
EXTT25=
EXTT26=
EXTT27=
EXTT28=
EXTT29=
PLAYORDER=
